<svg width="31" height="24" viewBox="0 0 31 24" fill="none" xmlns="http://www.w3.org/2000/svg">
<path d="M25 4.5H3V2C3 1.60218 2.84196 1.22064 2.56066 0.93934C2.27936 0.658035 1.89782 0.5 1.5 0.5C1.10218 0.5 0.720644 0.658035 0.43934 0.93934C0.158035 1.22064 0 1.60218 0 2V22C0 22.3978 0.158035 22.7794 0.43934 23.0607C0.720644 23.342 1.10218 23.5 1.5 23.5C1.89782 23.5 2.27936 23.342 2.56066 23.0607C2.84196 22.7794 3 22.3978 3 22V18.5H27.5V22C27.5 22.3978 27.658 22.7794 27.9393 23.0607C28.2206 23.342 28.6022 23.5 29 23.5C29.3978 23.5 29.7794 23.342 30.0607 23.0607C30.342 22.7794 30.5 22.3978 30.5 22V10C30.4983 8.54182 29.9184 7.14383 28.8873 6.11274C27.8562 5.08165 26.4582 4.50165 25 4.5ZM11 15.5H3V7.5H11V15.5ZM27.5 15.5H14V7.5H25C25.663 7.5 26.2989 7.76339 26.7678 8.23223C27.2366 8.70107 27.5 9.33696 27.5 10V15.5Z" fill="black"/>
</svg>
