<svg width="23" height="23" viewBox="0 0 23 23" fill="none" xmlns="http://www.w3.org/2000/svg">
<path d="M23 11.5378C22.9964 14.3484 21.9652 17.0608 20.1005 19.1639C18.2359 21.267 15.6667 22.6157 12.8767 22.956C12.8145 22.963 12.7516 22.9568 12.6921 22.9377C12.6325 22.9187 12.5777 22.8872 12.5312 22.8454C12.4847 22.8036 12.4476 22.7524 12.4223 22.6953C12.3971 22.6381 12.3842 22.5762 12.3846 22.5137V14.1916H15.0384C15.1597 14.1919 15.2797 14.1672 15.3911 14.1191C15.5024 14.0711 15.6027 14.0006 15.6856 13.9122C15.7686 13.8237 15.8325 13.7191 15.8733 13.6049C15.9142 13.4908 15.9311 13.3694 15.9231 13.2484C15.9035 13.0209 15.7986 12.8093 15.6293 12.656C15.4601 12.5028 15.2391 12.4193 15.0108 12.4224H12.3846V9.76853C12.3846 9.2993 12.571 8.84929 12.9028 8.51749C13.2346 8.1857 13.6846 7.99929 14.1538 7.99929H15.9231C16.0443 7.99956 16.1644 7.97489 16.2757 7.92682C16.387 7.87874 16.4873 7.80829 16.5702 7.71983C16.6532 7.63138 16.7171 7.52681 16.7579 7.41262C16.7988 7.29844 16.8157 7.17708 16.8077 7.05607C16.7881 6.82821 16.6829 6.61625 16.5131 6.46295C16.3434 6.30965 16.1219 6.22642 15.8932 6.23006H14.1538C13.2154 6.23006 12.3153 6.60286 11.6518 7.26645C10.9882 7.93005 10.6154 8.83007 10.6154 9.76853V12.4224H7.96151C7.84024 12.4221 7.72021 12.4468 7.60887 12.4949C7.49754 12.5429 7.39728 12.6134 7.31432 12.7018C7.23136 12.7903 7.16747 12.8949 7.12663 13.0091C7.08578 13.1232 7.06885 13.2446 7.07689 13.3656C7.09645 13.5935 7.20171 13.8054 7.37143 13.9587C7.54115 14.112 7.76269 14.1953 7.99136 14.1916H10.6154V22.5159C10.6157 22.5783 10.6029 22.6401 10.5777 22.6972C10.5525 22.7543 10.5155 22.8054 10.4691 22.8472C10.4227 22.8889 10.368 22.9204 10.3086 22.9396C10.2492 22.9587 10.1864 22.965 10.1244 22.9582C7.25973 22.6093 4.63044 21.1977 2.75694 19.0027C0.883444 16.8077 -0.0977076 13.9893 0.00769017 11.1054C0.228845 5.13424 5.06549 0.279903 11.0411 0.0476906C12.5882 -0.0122355 14.1314 0.240483 15.5786 0.79073C17.0257 1.34098 18.347 2.17745 19.4635 3.25011C20.5799 4.32277 21.4685 5.60959 22.0762 7.0336C22.6838 8.4576 22.998 9.98953 23 11.5378Z" fill="white"/>
</svg>
