<svg width="22" height="23" viewBox="0 0 22 23" fill="none" xmlns="http://www.w3.org/2000/svg">
<path fill-rule="evenodd" clip-rule="evenodd" d="M16.458 13.5635C17.5694 12.1306 18.0932 10.3281 17.9228 8.52269C17.7524 6.71729 16.9007 5.04461 15.5408 3.84494C14.1809 2.64527 12.415 2.00873 10.6025 2.06482C8.78992 2.1209 7.06681 2.86541 5.7837 4.14686C4.49947 5.4292 3.75253 7.15298 3.6951 8.96691C3.63767 10.7808 4.27408 12.5484 5.47462 13.9094C6.67516 15.2704 8.34949 16.1225 10.1564 16.2919C11.9633 16.4613 13.7668 15.9353 15.1994 14.8211L15.2378 14.8612L19.0187 18.643C19.1015 18.7258 19.1998 18.7915 19.308 18.8364C19.4162 18.8812 19.5322 18.9042 19.6493 18.9042C19.7664 18.9042 19.8824 18.8812 19.9906 18.8364C20.0987 18.7915 20.1971 18.7258 20.2799 18.643C20.3627 18.5602 20.4284 18.4619 20.4732 18.3537C20.518 18.2455 20.5411 18.1295 20.5411 18.0124C20.5411 17.8953 20.518 17.7794 20.4732 17.6712C20.4284 17.563 20.3627 17.4646 20.2799 17.3818L16.4981 13.6009C16.485 13.5881 16.4717 13.5756 16.458 13.5635ZM14.6076 5.40806C15.1108 5.90316 15.5111 6.493 15.7852 7.14355C16.0593 7.7941 16.202 8.49249 16.2048 9.19844C16.2077 9.90438 16.0708 10.6039 15.802 11.2567C15.5331 11.9094 15.1377 12.5025 14.6385 13.0017C14.1393 13.5009 13.5463 13.8963 12.8935 14.1651C12.2407 14.4339 11.5412 14.5709 10.8353 14.568C10.1293 14.5651 9.43094 14.4225 8.78038 14.1484C8.12983 13.8742 7.53999 13.474 7.04489 12.9708C6.05547 11.9651 5.50352 10.6092 5.50927 9.19844C5.51501 7.78766 6.07799 6.4363 7.07556 5.43873C8.07314 4.44115 9.4245 3.87817 10.8353 3.87243C12.246 3.86668 13.6019 4.41864 14.6076 5.40806Z" fill="white"/>
</svg>
