<svg width="58" height="155" viewBox="0 0 58 155" fill="none" xmlns="http://www.w3.org/2000/svg">
<path d="M43.4035 154.778H34.8533C34.9171 154.33 35.1354 152.966 35.5353 151.709C35.674 151.271 35.8359 150.847 36.0196 150.477C36.851 148.818 42.1324 149.873 42.1324 149.873C42.1324 149.873 42.6231 150.294 43.0062 151.899C43.1762 152.606 43.3256 153.545 43.4035 154.778Z" fill="#233862"/>
<path d="M27.7074 24.1791C27.7074 24.1791 20.8944 25.3756 19.354 29.3967C17.8136 33.4184 9.11157 98.376 9.11157 98.376C9.11157 98.376 13.4208 101.79 22.6705 100.565C31.9202 99.3388 27.7074 24.1791 27.7074 24.1791Z" fill="#9DB0F4"/>
<path d="M17.5662 152.08C17.543 153.243 17.3966 154.344 16.9745 154.778H0.0631104C0.278033 154.166 0.886514 153.246 2.62268 152.964C4.5956 152.645 7.67068 151.695 9.46629 149.797C10.106 149.123 10.5826 148.327 10.7914 147.397C11.587 143.855 17.3701 148.482 17.3701 148.482C17.3701 148.482 17.6034 150.348 17.5662 152.08Z" fill="#233862"/>
<path d="M10.2832 150.357C12.1731 150.96 15.7852 152.8 18.0798 151.935C19.5624 151.376 27.852 127.399 28.3893 116.91C28.429 116.148 28.5788 115.084 28.8138 113.787C29.3048 111.08 30.1638 107.36 31.1525 103.256C33.8051 92.2595 37.3933 78.5021 37.3154 74.105C37.1955 67.2802 16.9766 72.6747 16.9766 72.6747C16.9766 72.6747 15.5861 78.2728 15.3087 86.3784C14.7596 102.467 13.2501 129.644 9.14473 148.516C8.97011 149.318 9.49936 150.109 10.2832 150.357Z" fill="#233862"/>
<path d="M24.3164 74.1288L35.0047 151.595C35.0047 151.595 39.6988 152.727 43.3495 151.821C43.3495 151.821 46.4786 110.622 46.2177 100.661C45.9571 90.7006 48.4636 74.0086 45.6457 72.1676C42.8276 70.327 24.3164 74.1288 24.3164 74.1288Z" fill="#2B478B"/>
<path d="M46.9966 27.7277C46.9966 27.7277 35.7643 20.4647 27.7077 24.1792C26.4239 24.7712 24.9591 26.4231 23.9106 27.578C20.9984 30.787 15.3083 81.7623 15.3083 81.7623C15.3083 81.7623 31.4618 87.233 46.9966 79.9058V27.7277Z" fill="white"/>
<path d="M27.068 23.9948C27.068 23.9948 15.6966 28.6552 14.1566 32.236C12.6162 35.8165 7.61084 57.8055 7.61084 60.3838C7.61084 62.9622 16.3266 60.9604 17.7297 56.8017C18.895 53.3482 22.8247 42.7394 24.897 36.0294L27.068 23.9948Z" fill="#9DB0F4"/>
<path d="M29.4297 27.5456C31.9124 28.0326 35.5587 27.5137 38.2284 25.754C37.0232 22.8751 36.5289 20.6016 36.3533 19.1308C36.3428 19.0525 36.3351 18.9766 36.3277 18.9034C36.2481 18.1408 36.2595 17.6236 36.2968 17.3862H29.879C29.879 17.3862 28.1244 18.1884 28.1244 18.7429C28.1244 19.0394 28.1217 19.3231 28.1167 19.5938C28.1039 20.3316 28.0744 20.976 28.0361 21.5295C27.9142 23.3301 27.7073 24.1787 27.7073 24.1787C27.7073 24.1787 26.9228 27.0543 29.4297 27.5456Z" fill="#FFB27D"/>
<path d="M28.0359 21.5298C32.8982 22.4694 35.7204 19.8125 36.3534 19.1308C36.4434 19.033 36.4894 18.9753 36.4894 18.9753C36.438 18.9498 36.3843 18.9263 36.3279 18.9034C34.5178 18.1703 30.4105 18.7533 28.1169 19.5942C28.1038 20.3323 28.0742 20.9767 28.0359 21.5298Z" fill="#E2915A"/>
<path d="M37.9415 16.3317C37.0728 21.008 31.0388 20.8545 28.4318 20.5607C27.6977 20.4787 27.236 20.3854 27.236 20.3854C26.4086 20.1644 25.9471 18.8611 25.7326 17.1542C25.3067 13.7755 25.8447 8.81649 26.4149 7.54811C27.2743 5.63967 28.8919 3.57544 34.9682 5.06479C41.0458 6.5548 39.0564 10.3404 37.9415 16.3317Z" fill="#FFB27D"/>
<path d="M26.1885 4.93923C27.0193 3.78939 28.78 2.38498 30.3791 1.51925C33.8149 -0.339494 38.2124 1.57801 38.2309 1.58574C43.1939 3.76787 44.4898 7.5653 41.8587 13.48C39.0765 19.7349 36.4269 19.0311 36.4269 19.0311C36.4269 19.0311 36.9893 18.6811 36.938 16.7317C36.9353 16.6209 36.9309 16.5282 36.9259 16.4486C36.9 16.049 37.0411 15.6484 37.3396 15.3817C37.9562 14.8313 38.2564 13.1674 37.7402 12.7043C37.1176 12.1455 36.2421 12.8238 35.9627 13.3464C35.7183 13.7151 35.2811 13.8441 34.8737 13.5865C33.3286 12.6103 34.3324 10.6568 32.8561 9.46233C31.3799 8.26716 28.3851 9.27059 26.1707 8.31821C23.2723 7.2389 25.5625 5.80563 26.1885 4.93923Z" fill="#233862"/>
<path d="M25.4974 103.149C26.4757 103.4 27.4432 103.607 28.406 103.766C29.2569 103.911 30.1042 104.019 30.9524 104.091C35.7593 104.509 40.588 103.833 46.2318 102.214C47.5025 101.85 48.8155 101.437 50.1789 100.978C50.324 100.929 49.8082 86.0052 49.2125 70.6114C49.1517 69.0227 49.0892 67.4272 49.0274 65.8432C49.0005 65.1719 48.975 64.5046 48.9478 63.8384C48.4075 50.2237 47.8722 37.9284 47.7593 37.2662C47.5014 35.7681 47.2603 34.491 46.9967 33.3845C46.228 30.159 45.2729 28.3903 43.1909 26.8694C42.988 26.7152 41.3235 25.8757 39.8549 25.1453C38.6383 24.5408 37.5573 24.0132 37.5573 24.0132C37.5559 24.0132 37.5559 24.0132 37.5559 24.0132C37.0723 24.251 36.4907 25.3599 35.8825 26.9167C34.7646 29.7866 33.5577 34.1818 32.7185 37.4634C32.7158 37.4724 32.7145 37.4775 32.7145 37.4802C32.7145 37.4815 32.7145 37.4815 32.7145 37.4815C32.1741 39.6009 31.7862 41.2514 31.6761 41.7252C31.4884 42.5248 31.2409 44.0726 30.9494 46.1714C30.5542 49.0272 30.082 52.9035 29.5826 57.3024C29.5312 57.7544 29.4799 58.2124 29.4285 58.6745C29.3694 59.2021 29.3093 59.736 29.2502 60.2754C29.2307 60.4486 29.2119 60.6216 29.1938 60.7952C29.0013 62.5371 28.8076 64.335 28.6148 66.1629C28.454 67.6737 26.163 68.7658 26.0052 70.3021C25.9142 71.2045 25.7234 79.5294 25.4786 82.1863C25.303 84.0837 25.4283 102.256 25.4974 103.149Z" fill="#AEC3FF"/>
<path d="M42.0748 42.7548C42.0822 42.7861 42.4644 56.522 32.132 58.1906C21.7989 59.8596 28.6647 60.3006 28.6647 60.3006C28.6647 60.3006 48.1057 59.4741 48.4264 58.961C48.7475 58.4475 42.0748 42.7548 42.0748 42.7548Z" fill="#9DB0F4"/>
<path d="M33.345 64.0875C33.345 64.0875 33.5387 64.2249 33.9111 64.465C33.9175 64.4673 33.9239 64.4724 33.9306 64.4764C35.5066 65.4825 40.1852 68.2254 46.9969 70.065C47.7119 70.2588 48.4513 70.4425 49.2126 70.6117C49.1518 69.023 49.0894 67.4275 49.0276 65.8435C49.9276 65.773 50.7886 65.6588 51.5882 65.4892C51.5613 65.28 51.5331 65.0708 51.5063 64.8616C50.6399 64.5059 49.7784 64.1634 48.948 63.8387C48.2716 63.574 47.6172 63.3225 46.9969 63.0891C44.1989 62.0263 42.1246 61.3063 42.1246 61.3063L33.8416 63.93L33.345 64.0875Z" fill="#9DB0F4"/>
<path d="M31.1528 63.8575C31.1528 63.8575 32.2167 64.1235 33.9112 64.465C33.9176 64.465 33.9227 64.4664 33.9291 64.4687C37.0535 65.0963 42.3057 65.9768 46.997 65.9295C47.6891 65.9221 48.3691 65.8949 49.0277 65.8435C49.9277 65.773 50.7887 65.6589 51.5883 65.4893C53.3029 65.1273 54.7395 64.515 55.6791 63.5576C62.6577 56.4491 51.8707 30.9372 49.6026 28.4551C46.9546 25.5567 42.1223 24.5402 39.4535 24.1909C39.3421 24.1768 39.2356 24.1627 39.1315 24.15C38.1932 24.0385 37.5911 24.0153 37.5575 24.014C37.5562 24.014 37.5562 24.014 37.5562 24.014C37.5562 24.014 37.7654 24.6866 38.116 25.8277C38.252 26.269 38.4098 26.7814 38.5831 27.3526C40.2225 32.7203 43.3849 43.2696 44.7789 49.219C45.2897 51.3957 45.563 52.9566 45.4388 53.4227C44.8944 55.4548 39.2558 56.4995 35.6837 56.9615C34.1933 57.154 33.0626 57.2453 32.8098 57.2644C32.7916 57.2644 32.7748 57.2658 32.757 57.2681L32.5505 58.1151L32.0562 60.1471L31.5699 62.1428L31.1528 63.8575Z" fill="#AEC3FF"/>
<path d="M11.6887 76.0866L35.6562 75.0768L30.7939 45.2076L6.82642 46.2174L11.6887 76.0866Z" fill="#F99746"/>
<path d="M32.7572 57.2681C32.7572 57.2681 28.0913 56.9427 27.8576 58.0304C27.3119 60.5655 31.8683 62.6472 33.3448 62.5048C34.8211 62.3625 33.8311 57.0989 32.7572 57.2681Z" fill="#FFB27D"/>
<path d="M8.13609 52.2829C8.13609 52.2829 12.6001 50.8873 13.0793 51.891C14.1962 54.2313 10.245 57.3104 8.77615 57.5132C7.30662 57.7161 7.05207 52.3665 8.13609 52.2829Z" fill="#FFB27D"/>
<path d="M37.0722 22.5139C37.0722 22.5139 39.2866 22.898 40.2705 24.3098C40.2705 24.3098 32.682 37.5997 32.715 37.4805C32.7479 37.3613 35.195 24.1452 37.0722 22.5139Z" fill="#9DB0F4"/>
<path d="M27.9347 22.6932C27.2882 22.9373 26.0491 24.2067 25.7697 24.9089L24.8972 36.0294C24.8972 36.0294 26.7597 27.8681 27.7077 24.1792C27.9484 23.2416 27.9041 22.9565 27.9347 22.6932Z" fill="#9DB0F4"/>
<path d="M22.8486 45.5421C22.8486 45.5421 22.6593 44.7133 21.5682 44.8097C20.4771 44.9057 14.3485 45.2076 14.3485 45.2076C14.3485 45.2076 13.1661 45.1878 13.2759 45.9454L22.8486 45.5421Z" fill="#C65447"/>
</svg>
