<svg width="212" height="112" viewBox="0 0 212 112" fill="none" xmlns="http://www.w3.org/2000/svg">
<path d="M211.429 0.863525H0.838989V110.876H211.429V0.863525Z" fill="#98BAF4"/>
<path d="M205.328 8.55646H7.91687V111.245H205.328V8.55646Z" fill="white"/>
<path d="M198.254 15.0522H15.391V38.647H198.254V15.0522Z" fill="#AFCDFB"/>
<path d="M68.8636 45.0557H15.391V110.802H68.8636V45.0557Z" fill="#AFCDFB"/>
<path d="M139.694 45.0557H73.9517V110.802H139.694V45.0557Z" fill="#AFCDFB"/>
<path d="M198.254 45.0557H144.215V110.802H198.254V45.0557Z" fill="#AFCDFB"/>
<path d="M95.4927 45.0557H139.694V69.3879L131.816 110.802H82.9852L95.4927 45.0557Z" fill="#CCE1FF"/>
<path d="M131.753 57.5665H82.5704V110.876H131.753V57.5665Z" fill="white"/>
<path d="M129.408 59.9759H84.9149V110.876H129.408V59.9759Z" fill="#98BAF4"/>
<path d="M107.991 59.9759H106.333V110.876H107.991V59.9759Z" fill="white"/>
<path d="M102.368 85.4261C102.368 84.8454 102.838 84.3746 103.419 84.3746C104 84.3746 104.47 84.8451 104.47 85.4261C104.47 86.0067 104 86.4772 103.419 86.4772C102.838 86.4772 102.368 86.0064 102.368 85.4261Z" fill="white"/>
<path d="M109.853 85.4261C109.853 84.8455 110.324 84.3747 110.904 84.3747C111.485 84.3747 111.956 84.8452 111.956 85.4261C111.956 86.0068 111.485 86.4772 110.904 86.4772C110.324 86.4772 109.853 86.0064 109.853 85.4261Z" fill="white"/>
<path d="M32.4019 45.0557H59.4754L50.8329 110.802H23.7594L32.4019 45.0557Z" fill="#CCE1FF"/>
<path d="M63.417 15.0522L60.316 38.647H33.2426L36.3435 15.0522H63.417Z" fill="#CCE1FF"/>
<path d="M157.006 45.0557H184.079L175.437 110.802H148.363L157.006 45.0557Z" fill="#CCE1FF"/>
<path d="M188.021 15.0522L184.92 38.647H157.846L160.947 15.0522H188.021Z" fill="#CCE1FF"/>
<path d="M150.03 15.0522L145.54 38.647H96.7108L101.2 15.0522H150.03Z" fill="#CCE1FF"/>
</svg>
