<svg width="61" height="139" viewBox="0 0 61 139" fill="none" xmlns="http://www.w3.org/2000/svg">
<path d="M16.5928 30.5713C16.0898 29.6011 27.5683 26.1069 27.7503 35.6827C27.7503 35.6827 49.2526 35.1541 38.9857 23.1688C35.4314 19.0202 35.7971 15.5895 35.9036 12.3959C36.0117 9.20193 33.6895 -0.0797161 25.7307 0.85486C25.7307 0.85486 23.6463 0.00693852 21.045 1.35625C15.1293 4.42494 1.87802 34.1024 16.5928 30.5713Z" fill="#163560"/>
<path d="M51.7469 41.2768C51.7469 41.2768 53.1463 39.1457 54.2743 39.104C55.4023 39.0621 57.4914 38.4774 57.3242 38.8952C57.1573 39.3129 55.862 39.3546 55.7364 39.6054C55.6112 39.8559 57.6586 40.2317 58.2433 40.2737C58.8283 40.3153 60.2072 40.2737 60.1652 40.5662C60.1235 40.8583 57.6805 42.0703 55.9567 41.9027C54.2327 41.7358 52.1019 42.4041 52.1019 42.4041L51.7469 41.2768Z" fill="#FFB27D"/>
<path d="M31.5044 41.9658C31.5044 41.9658 32.2654 43.472 33.6452 45.2034C35.3085 47.2865 37.8732 49.693 41.093 50.1678C42.631 50.3948 44.1351 50.0637 45.5177 49.4495C45.5214 49.4482 45.5227 49.4482 45.5227 49.4482C49.4336 47.7123 52.3737 43.7201 52.3737 43.7201C53.0631 41.8399 51.9348 40.5651 51.9348 40.5651C51.9348 40.5651 44.0384 42.3413 43.2865 41.9655C42.5346 41.5894 38.1475 28.9513 37.1035 27.3636C36.0584 25.7755 32.4984 24.9507 32.4984 24.9507L31.5044 41.9658Z" fill="#163560"/>
<path d="M2.04461 127.203C2.04461 127.203 -0.364881 129.402 0.105262 130.964C0.575404 132.526 2.74981 133.568 3.04365 135.478C3.33749 137.387 4.51286 138.429 5.57068 138.429C6.62816 138.429 10.6139 138.429 10.6139 138.429C10.6139 138.429 11.3924 137.085 9.51213 136.68C7.63122 136.275 6.92233 134.031 7.0402 131.947C7.15774 129.864 6.86389 127.087 6.86389 127.087L2.86804 126.161L2.04461 127.203Z" fill="#233862"/>
<path d="M22.4383 128.136C22.4383 128.136 21.5715 137.451 22.6294 137.972L36.1671 137.944C36.1671 137.944 36.1671 136.382 33.9924 136.035C31.818 135.688 27.9981 134.415 27.3519 131.579C26.7052 128.744 22.4383 128.136 22.4383 128.136Z" fill="#233862"/>
<path d="M12.791 61.3065C15.5769 55.059 17.2815 53.2657 16.9557 51.3264C16.7136 49.8834 17.6932 24.4174 17.6932 24.4174C18.0236 24.315 18.6862 24.2233 19.0486 24.143C20.191 23.8892 21.1373 23.0866 21.5309 21.9841C22.0051 20.6563 22.3819 18.6954 22.3735 16.2386L22.7304 16.3088L28.7305 17.4973C28.7305 17.4973 28.5941 19.3855 28.5901 21.1644C28.5901 21.1791 28.5898 21.1939 28.5898 21.2087C28.5827 22.7538 29.5959 24.1172 31.0805 24.5457C31.8381 24.7643 32.4976 24.9517 32.4976 24.9517C32.4976 24.9517 34.7013 31.2415 35.1217 37.7043C35.5425 44.1661 31.1151 46.9739 35.1553 59.8873C39.2798 73.0755 11.2519 64.7587 12.791 61.3065Z" fill="#FFB27D"/>
<path d="M28.7304 17.4973C28.7304 17.4973 28.594 19.3855 28.59 21.1644C25.2322 21.0697 23.4574 18.0067 22.7303 16.3088L28.7304 17.4973Z" fill="#E8945B"/>
<path d="M29.8523 19.1817C29.8523 19.1817 21.9082 19.3127 21.9029 14.3641C21.8972 9.41583 20.8682 6.1 25.94 5.80717C31.0119 5.51434 31.9995 7.40127 32.4031 9.05247C32.8068 10.7037 31.9186 19.0199 29.8523 19.1817Z" fill="#FFB27D"/>
<path d="M29.5581 5.68563C29.5581 5.68563 27.3826 11.4912 24.0449 12.3496C20.7069 13.2082 19.2589 12.314 19.2589 12.314C19.2589 12.314 21.8192 10.2796 22.3505 6.72903C22.3505 6.72903 27.9173 2.92253 29.5581 5.68563Z" fill="#163560"/>
<path d="M29.019 6.15713C29.019 6.15713 30.6323 6.76024 31.2956 7.93661C31.945 9.08711 32.4978 10.6104 32.3695 12.4792C32.3695 12.4792 34.0083 8.53335 32.1667 6.30118C30.2139 3.93402 29.019 6.15713 29.019 6.15713Z" fill="#163560"/>
<path d="M28.1239 16.1117C28.1239 16.1117 28.6719 16.8327 29.7684 16.781C30.6519 16.739 30.9928 15.9727 30.9928 15.9727C30.9928 15.9727 29.3701 15.5828 28.1239 16.1117Z" fill="#EBF3FA"/>
<path d="M13.8729 35.6824C13.8729 35.6824 13.9031 39.4503 14.1046 42.8632C14.2386 45.1256 14.4472 47.2325 14.7716 47.982C15.5863 49.8623 16.5047 50.1679 16.5047 50.1679L23.6126 51.9101L26.1117 52.5216L33.9933 50.1675C33.9933 50.1675 37.5829 40.1481 36.1416 34.5077C34.6999 28.8674 32.4976 24.9507 32.4976 24.9507C32.4976 24.9507 26.0668 31.2476 17.6925 24.4165L13.8729 35.6824Z" fill="#163560"/>
<path d="M33.4923 51.6888C33.4923 51.6888 37.3955 63.8372 37.646 67.9735C37.8965 72.1094 30.1852 126.732 29.8749 128.637C29.5824 130.434 27.3516 131.579 27.3516 131.579C27.3516 131.579 26.3253 132.184 24.8611 131.771C22.8295 131.197 22.1874 130.51 22.1874 130.51C22.1874 130.51 19.1493 91.5542 21.0295 77.6383C22.9094 63.7227 22.9316 51.6888 22.9316 51.6888H33.4923Z" fill="#ED7D2B"/>
<path d="M16.9563 51.3264C16.9563 51.3264 11.0026 59.3148 10.4478 64.7147C9.8927 70.1146 9.57707 89.0825 8.39466 94.3464C7.21225 99.611 2.8678 109.742 2.8678 126.161C2.8678 126.161 3.31913 127.102 4.71343 127.603C5.1594 127.764 5.75681 127.919 6.33676 128.052C7.48693 128.316 8.66665 127.753 9.19153 126.697C12.1286 120.784 21.4848 101.71 21.9646 97.7506C22.3041 94.9486 25.2583 76.4045 31.7019 65.5227C33.2491 62.9107 30.7526 52.5215 30.7526 52.5215L16.9563 51.3264Z" fill="#F99746"/>
<path d="M28.3003 16.244C28.3003 16.244 28.4376 16.827 29.8884 16.7373C29.8884 16.7373 31.1064 16.6621 31.0691 16.0211C31.0691 16.0211 29.888 15.565 28.3003 16.244Z" fill="white"/>
<path d="M34.1158 49.8132C34.1158 49.8132 32.5489 51.0527 29.4362 51.1155C25.7184 51.1904 16.5053 50.1675 16.5053 50.1675C16.5053 50.1675 16.0959 51.3113 16.1127 52.5189C16.1127 52.5189 27.3649 55.3572 33.8841 52.9333C33.8841 52.9333 34.7253 51.3516 34.1158 49.8132Z" fill="#233862"/>
<path d="M28.632 52.3993C28.632 51.3408 29.3929 50.4791 30.3285 50.4791C31.2641 50.4791 32.025 51.3405 32.025 52.3993C32.025 53.4582 31.2641 54.3199 30.3285 54.3199C29.3929 54.3199 28.632 53.4582 28.632 52.3993ZM29.1945 52.3993C29.1945 53.1482 29.7032 53.7574 30.3285 53.7574C30.9538 53.7574 31.4629 53.1485 31.4629 52.3993C31.4629 51.6508 30.9538 51.0416 30.3285 51.0416C29.7032 51.0416 29.1945 51.6505 29.1945 52.3993Z" fill="white"/>
<path d="M2.15567 70.5278L19.8617 74.3462L22.0018 64.4222L4.2958 60.6038L2.15567 70.5278Z" fill="#163560"/>
<path d="M21.9693 64.4192C21.9693 64.4192 17.0193 68.5662 11.5177 67.1235C6.01599 65.6808 4.2627 60.6013 4.2627 60.6013L21.9693 64.4192Z" fill="#17467F"/>
<path d="M18.5092 63.7691C18.5092 63.2271 18.9501 62.7858 19.4924 62.7858C20.0348 62.7858 20.4763 63.2267 20.4763 63.7691C20.4763 64.3114 20.0351 64.753 19.4924 64.753C18.9501 64.753 18.5092 64.3114 18.5092 63.7691ZM18.8355 63.7691C18.8355 64.1314 19.1301 64.4259 19.4921 64.4259C19.8544 64.4259 20.1489 64.1314 20.1489 63.7691C20.1489 63.407 19.8544 63.1126 19.4921 63.1126C19.1301 63.1126 18.8355 63.407 18.8355 63.7691Z" fill="#17467F"/>
<path d="M5.07913 65.0149C5.07913 65.0149 5.07208 66.4533 4.79907 67.1474C4.52605 67.8408 3.70799 68.766 3.43498 68.766C3.16196 68.766 3.68483 67.3206 3.54849 67.3495C3.41215 67.3784 2.75429 69.755 2.27676 69.8128C1.79922 69.8709 1.36601 67.147 1.61619 66.0775C1.86604 65.0079 2.94601 63.7251 2.94601 63.7251L5.07913 65.0149Z" fill="#FFB27D"/>
<path d="M17.6937 24.4174C17.6937 24.4174 13.2992 25.0135 10.9338 29.6736C9.10591 33.2749 7.85166 44.603 6.56212 48.1697C5.32766 51.583 3.62439 58.1818 2.6747 63.4692C2.60115 63.8792 2.82718 64.2835 3.21437 64.437L4.83065 65.0777C5.17923 65.2161 5.5765 65.0818 5.76825 64.7594C7.2042 62.3479 12.8664 52.6922 14.8326 47.1059C17.1312 40.5749 21.431 36.5186 21.431 36.5186L17.6937 24.4174Z" fill="#163560"/>
<path d="M19.816 63.0074C19.8264 62.8456 20.8486 46.6918 20.6532 37.609C20.5504 32.84 19.814 29.4806 19.2139 27.5019C18.5594 25.3426 17.5818 24.4591 17.5553 24.4168L17.2222 24.5158C17.2467 24.5554 19.9587 28.6356 20.1522 37.6197C20.3473 46.6807 19.3264 62.8133 19.3163 62.9755L19.816 63.0074Z" fill="#0C2442"/>
</svg>
