<svg width="35" height="35" viewBox="0 0 35 35" fill="none" xmlns="http://www.w3.org/2000/svg">
<path d="M17.5762 34.4923C13.0426 34.4923 8.78082 32.7269 5.57512 29.5212C2.36942 26.3158 0.604004 22.054 0.604004 17.5205C0.604004 12.987 2.36942 8.7251 5.57512 5.5194C8.78082 2.31403 13.0426 0.548645 17.5762 0.548645C22.1097 0.548645 26.3715 2.31403 29.5772 5.5194C32.7826 8.7251 34.5483 12.987 34.5483 17.5205C34.5483 22.054 32.7829 26.3158 29.5772 29.5212C26.3715 32.7269 22.1093 34.4923 17.5762 34.4923ZM17.5762 2.11053C13.4601 2.11053 9.59012 3.7134 6.6796 6.62392C3.76908 9.53443 2.16625 13.404 2.16625 17.5201C2.16625 21.6362 3.76908 25.5058 6.6796 28.4163C9.59012 31.3269 13.4597 32.9297 17.5762 32.9297C21.6926 32.9297 25.5619 31.3269 28.4727 28.4163C31.3832 25.5058 32.9861 21.6362 32.9861 17.5201C32.9861 13.404 31.3832 9.53443 28.4727 6.62392C25.5619 3.7134 21.6923 2.11053 17.5762 2.11053Z" fill="white"/>
<path d="M28.5379 14.752H20.3447V6.55841H14.8077V14.752H6.6145V20.2889H14.8077V28.4819H20.3447V20.2889H28.5379V14.752Z" fill="white"/>
</svg>
