<svg width="84" height="140" viewBox="0 0 84 140" fill="none" xmlns="http://www.w3.org/2000/svg">
<path d="M40.9314 130.857L38.4215 130.044C38.4215 130.044 37.9007 123.233 39.0169 115.07C39.7238 109.898 41.0208 104.297 43.3688 99.7981C44.4316 97.762 45.7094 95.952 47.2461 94.509C47.2461 94.509 49.172 90.0386 51.7219 84.0621C54.5578 77.4176 72.303 75.4695 62.1772 89.3891C60.0998 92.2452 57.869 97.2734 55.1949 100.327C50.6264 105.546 47.4023 111.64 45.1886 117.004C42.0248 124.677 40.9314 130.857 40.9314 130.857Z" fill="#FFB27D"/>
<path d="M35.2183 131.238C34.4573 132.471 36.1001 133.679 38.1321 134.816C40.1642 135.955 39.3226 136.069 41.9212 138.003C44.5197 139.938 46.0517 139.725 46.45 139.441C46.8039 139.191 45.7421 137.996 44.6278 136.689C44.4871 136.525 44.3478 136.359 44.2081 136.192C42.9635 134.701 42.7792 132.83 42.1949 130.89C41.6414 129.052 42.5186 124.483 42.5186 124.483L39.0499 121.728C39.0499 121.728 38.3454 125.882 37.9575 127.613C37.7295 128.63 36.8977 129.482 36.2227 130.11C35.8577 130.452 35.4856 130.803 35.2183 131.238Z" fill="#FFB27D"/>
<path d="M38.1321 134.816C40.1641 135.955 39.3226 136.069 41.9211 138.003C44.5197 139.938 46.0517 139.725 46.4499 139.441C46.8039 139.191 45.742 137.996 44.6278 136.689L44.5935 136.702C44.5935 136.702 42.2475 136.387 40.243 134.606C38.6089 133.156 37.3429 131.12 36.223 130.109C35.8573 130.452 35.4855 130.803 35.2179 131.237C34.4573 132.471 36.1001 133.678 38.1321 134.816Z" fill="#1C468A"/>
<path d="M26.1008 135.281L23.2084 136.781C23.2084 136.781 21.478 134.527 19.9326 131.804C18.8509 129.898 17.8576 127.76 17.6144 126.009C17.0237 121.756 12.5215 114.767 12.9899 113.576C13.4584 112.386 22.3864 110.327 22.3864 110.327C22.3864 110.327 24.1316 122.276 25.2922 130C25.631 132.254 25.9188 134.149 26.1008 135.281Z" fill="#FFB27D"/>
<path d="M23.8972 118.599C22.2443 119.4 20.7093 119.861 19.3919 120.119C17.4287 120.504 15.9518 120.438 15.2987 120.374C15.0569 120.35 14.9286 120.328 14.9286 120.328C14.9286 120.328 13.322 119.17 11.4603 116.473C9.75367 114.001 8.48596 110.465 8.48596 110.422L22.1191 109.095L23.8972 118.599Z" fill="#2B478B"/>
<path d="M19.3921 120.119C17.4289 120.504 15.952 120.438 15.2988 120.374L16.8308 114.422C16.8308 114.422 18.8152 117.522 19.3921 120.119Z" fill="#233862"/>
<path d="M26.1007 135.281L23.2083 136.781C23.2083 136.781 21.4778 134.527 19.9324 131.804C21.1363 131.713 23.2277 131.352 25.2923 130.001C25.6308 132.254 25.9186 134.149 26.1007 135.281Z" fill="white"/>
<path d="M19.5279 113.057C19.5279 113.057 15.8728 118.214 13.6591 125.461C13.1386 127.169 11.3635 129.295 9.5689 131.184C7.82803 133.017 6.06937 134.627 5.4189 135.418L2.47278 134.001C2.47278 134.001 3.50811 131.031 5.0401 128.335C5.60864 127.333 6.244 126.37 6.92302 125.61C7.86129 124.56 7.55266 111.297 8.48623 110.422C9.42114 109.549 19.5279 113.057 19.5279 113.057Z" fill="#FFB27D"/>
<path d="M21.2686 109.987L15.8734 120.955C15.8422 120.959 11.852 121.079 9.01838 119.493C7.3937 118.583 6.66431 117.507 6.66431 117.507L8.3464 109.987H21.2686Z" fill="#2B478B"/>
<path d="M11.605 73.368C11.605 73.368 9.7694 69.5082 5.33562 71.8055C0.901839 74.1028 5.21841 82.8616 2.89154 85.0249C0.564674 87.1879 3.73479 88.6044 3.26264 90.1559C2.79048 91.7073 4.13944 93.4714 7.24238 93.2638C10.345 93.0563 13.6121 93.2235 15.0138 90.5095C16.4155 87.7951 16.0968 81.8222 15.5555 80.9827C15.0142 80.1432 11.605 73.368 11.605 73.368Z" fill="#B64C41"/>
<path d="M11.2361 89.4033L11.2509 89.4114C11.2381 89.4181 11.2361 89.4033 11.2361 89.4033Z" fill="#FFB27D"/>
<path d="M18.7898 93.961L11.2507 89.4114C11.2927 89.3946 11.4448 89.1669 12.0087 87.5365C12.2488 86.8414 12.3761 86.2382 12.4389 85.76C12.4449 85.7117 12.4513 85.666 12.4556 85.62C12.5329 84.9249 12.4765 84.5239 12.4765 84.5239L14.128 85.121L17.1826 86.2275C17.147 87.0022 17.2555 87.5469 17.4203 87.9207C17.8193 88.8287 18.5625 88.8351 18.5833 88.8351L18.7898 93.961Z" fill="#FFB27D"/>
<path d="M17.4198 87.921C14.4676 88.1715 12.8057 86.2466 12.4383 85.76C12.3839 85.6888 12.3567 85.6492 12.3567 85.6492C12.3567 85.6492 12.3923 85.6391 12.4551 85.62C12.6952 85.5491 13.3467 85.3527 14.1275 85.1213L17.182 86.2278C17.1461 87.0022 17.2549 87.5469 17.4198 87.921Z" fill="#ED985F"/>
<path d="M17.5675 86.8605C17.5675 86.8605 11.009 87.5812 10.8747 83.1457C10.7404 78.7113 9.77087 76.6816 14.3088 76.2863C18.8466 75.8914 19.9186 77.5255 20.1859 79.0262C21.0214 83.7139 19.4152 86.6617 17.5675 86.8605Z" fill="#FFB27D"/>
<path d="M5.33577 71.8052C5.2441 71.6003 5.17896 71.4667 5.17896 71.4667C5.24713 71.5617 5.2985 71.6762 5.33577 71.8052Z" fill="#D35C2B"/>
<path d="M19.6763 89.279C19.6763 89.279 25.9651 84.447 26.6364 82.8475C27.3077 81.2473 30.1947 75.392 30.9406 74.795C30.9406 74.795 32.5041 74.5941 32.7278 75.6761C32.9514 76.7581 31.2388 83.1816 30.0456 85.121C28.8521 87.06 23.1338 93.6349 21.256 94.589L19.6763 89.279Z" fill="#FFB27D"/>
<path d="M34.9596 71.8354C34.8558 72.3956 34.6278 72.9967 34.3581 73.308C34.0055 73.7227 33.4457 74.5522 33.0931 75.0915C32.8651 75.4233 32.7196 75.6721 32.7196 75.6721L30.9365 74.801C30.9365 74.801 30.8948 71.7733 32.0769 71.1302C32.1185 71.1094 32.139 71.0889 32.1807 71.0889C32.6783 70.8192 33.1555 70.6329 33.5703 70.5083C34.1301 70.3632 34.5656 70.3424 34.8145 70.4874C35.0425 70.612 35.0841 71.2135 34.9596 71.8354Z" fill="#FFB27D"/>
<path d="M14.6615 78.453C12.3407 77.8657 13.2282 81.9774 12.6415 81.6957C11.9854 81.3807 10.8577 81.3857 11.036 82.1779C11.2137 82.9701 11.4706 83.2535 11.6046 83.7481C11.7382 84.2428 11.6035 85.2224 11.0639 85.0249C10.5242 84.8275 5.50511 79.0964 9.04898 74.6324C12.5928 70.1681 23.16 72.9184 19.8324 77.5879C19.2474 78.4087 16.314 78.8714 14.6615 78.453Z" fill="#B64C41"/>
<path d="M23.0843 111.604C23.0843 111.604 21.1137 112.65 18.0108 112.601C16.0342 112.571 11.8365 111.712 9.13786 110.737C7.59982 110.184 6.54838 109.592 6.67499 109.095C6.857 108.379 8.17407 102.882 9.3914 97.795C10.5043 93.1436 11.5336 88.8355 11.5336 88.8355C11.5336 88.8355 14.605 91.0179 16.3952 90.2479C18.1854 89.4769 17.9554 88.6071 17.9554 88.6071C17.9554 88.6071 19.1264 88.1343 19.6754 88.3086C20.2245 88.4819 21.7834 87.5987 21.7834 87.5987C21.7834 87.5987 23.5048 88.9292 23.5706 91.786C23.581 92.2084 23.5558 92.6661 23.4809 93.1571L22.2384 94.5894C22.2384 94.5894 24.8745 102.9 23.0843 111.604Z" fill="#F99746"/>
<path d="M30.8908 138.833H22.2543C22.2543 138.833 22.0894 137.428 22.2879 136.227C22.3118 136.081 22.3877 135.95 22.5012 135.833C23.0069 136.005 23.7497 136.125 24.5761 135.829C25.2535 135.585 25.7545 135.216 26.1038 134.878C26.1931 134.965 27.9773 136.665 28.8024 136.665C29.6483 136.666 30.9402 137.073 30.8908 138.833Z" fill="#AA443E"/>
<path d="M9.5689 131.184C7.82803 133.017 6.06937 134.627 5.4189 135.419L2.47278 134.001C2.47278 134.001 3.50811 131.031 5.0401 128.336C5.56666 129.156 6.9492 130.843 9.5689 131.184Z" fill="white"/>
<path d="M6.05727 134.657C6.05727 134.657 5.94948 136.532 6.57477 136.78C7.19972 137.029 8.365 137.644 8.365 138.833H4.03903C4.03903 138.833 1.05563 137.366 0.657688 136.742C0.259746 136.119 2.64539 133.458 2.64539 133.458C2.64539 133.458 4.11088 135.079 6.05727 134.657Z" fill="#AA443E"/>
<path d="M13.2144 104.184C13.2144 104.184 15.1083 103.83 15.8495 104.316C16.5906 104.8 16.8096 105.559 16.276 105.87C14.604 106.842 12.9094 105.767 12.9094 105.767L13.2144 104.184Z" fill="#FFB27D"/>
<path d="M11.61 89.4285C11.61 89.4285 5.77552 90.664 3.47451 99.734C3.24951 100.622 3.48224 101.569 4.09578 102.249C5.1536 103.421 7.48618 105.136 12.9099 105.767C13.502 105.836 13.5816 104.333 13.5816 104.333C13.5225 104.453 9.897 101.991 8.35393 100.668C8.07486 100.428 8.08662 99.9261 8.28811 99.6185C8.8093 98.823 9.68408 97.4471 9.97826 96.7412C10.4074 95.7113 13.2404 89.8956 11.61 89.4285Z" fill="#FFB27D"/>
<path d="M11.5342 88.8351C11.5342 88.8351 8.10423 89.0792 5.30688 92.8084C5.30688 92.8084 6.25321 96.2391 10.6967 97.1549C10.6967 97.1549 13.4356 90.9779 11.5342 88.8351Z" fill="#F99746"/>
<path d="M58.3061 0.227878C58.3061 0.227878 52.1848 -0.517284 49.1077 5.17883C46.0303 10.8746 46.2791 19.1263 43.2954 23.0184C40.312 26.9108 43.7927 30.6008 43.7927 30.6008L67.039 31.3859C67.039 31.3859 68.6553 27.0351 67.039 21.8138C65.423 16.5929 73.3167 1.01738 58.3061 0.227878Z" fill="#B64C41"/>
<path d="M77.9867 69.3564C77.7479 70.2651 76.9688 72.3172 76.364 72.3166C75.871 72.3162 75.6944 69.804 75.0597 69.2704C74.1395 68.4963 73.3897 66.874 73.2701 66.4808C73.024 65.6701 72.7922 65.5015 72.7922 65.5015L72.7936 65.5002H72.7909C72.7909 65.5002 65.4409 52.0618 64.8663 48.622C64.6772 47.5024 64.1964 45.2555 63.6308 42.7389C63.0166 40.0027 62.3044 36.9467 61.7667 34.6578C64.1131 34.2004 66.7086 34.0392 68.8253 33.9983C69.2561 36.7828 69.6416 39.6275 69.9741 42.1002C70.4681 45.7773 70.8432 48.6308 71.0749 49.242C71.7139 50.9204 73.4756 59.9646 75.1362 64.6603C75.3266 65.122 75.866 66.3253 76.4567 66.7343C77.1951 67.2444 78.2241 68.4463 77.9867 69.3564Z" fill="#E8945B"/>
<path d="M64.6646 56.0926C60.6046 43.1147 68.777 43.2836 68.3542 36.7892C67.9314 30.2949 62.9033 23.3123 62.9033 23.3123C62.9033 23.3123 62.7232 23.2938 62.4089 23.2649C62.2367 23.2488 62.0882 23.1366 62.0288 22.9744C61.8414 22.4613 61.7867 21.3383 61.7897 20.1673C61.7937 18.3798 61.9307 16.4818 61.9307 16.4818L55.9005 15.2876L55.5418 15.2171C55.5526 18.2502 54.9787 20.5307 54.3571 21.8041C54.0616 22.4103 53.4846 22.8247 52.817 22.918C51.5214 23.0997 49.2423 23.4869 47.7059 24.1293C46.9597 24.441 46.3902 24.8124 46.1914 25.2489C44.5355 28.8902 42.8822 38.0791 41.72 44.6346C41.0725 48.2882 40.5785 51.1239 40.3206 51.7247C39.6016 53.4011 37.4051 62.6263 35.5282 67.1786L37.9253 67.8976C37.9253 67.8976 45.8317 54.7789 46.5507 51.3657C46.7854 50.2541 47.3604 48.0303 48.031 45.5389C48.1324 45.1618 48.2361 44.7786 48.3409 44.3921C49.5257 47.6049 50.1305 49.0918 50.0976 50.4798C50.0509 52.4554 48.7117 54.2309 45.912 60.5096C44.3652 63.9793 68.8096 69.3473 64.6646 56.0926Z" fill="#FFB27D"/>
<path d="M61.9305 16.4817C61.9305 16.4817 61.7932 18.3794 61.7891 20.1673C58.4149 20.0723 56.631 16.9942 55.9003 15.2879L61.9305 16.4817Z" fill="#E8945B"/>
<path d="M63.0579 18.1746C63.0579 18.1746 55.0742 18.3066 55.0685 13.3332C55.0631 8.36005 54.0288 5.02774 59.1262 4.73356C64.2235 4.43905 65.2159 6.33575 65.6216 7.99535C66.0272 9.65462 65.1346 18.0124 63.0579 18.1746Z" fill="#FFB27D"/>
<path d="M74.1981 134.076L71.6362 134.707C71.6362 134.707 67.6071 129.19 64.2583 121.663C62.136 116.894 60.2893 111.449 59.9172 106.388C59.7486 104.097 59.8819 101.886 60.4287 99.8501C60.4287 99.8501 59.712 95.0355 58.7331 88.6117C57.6458 81.4695 56.2357 72.339 55.1305 65.6251L55.7974 65.4269L66.6973 59.0531C66.6973 59.0531 71.706 70.4702 70.4266 87.6355C70.1643 91.1572 70.9152 96.6068 70.2499 100.611C69.1142 107.454 69.5817 114.332 70.524 120.058C71.8736 128.246 74.1981 134.076 74.1981 134.076Z" fill="#FFB27D"/>
<path d="M47.8681 43.0992C49.3645 47.2324 50.1348 48.9179 50.0976 50.4801C54.8668 43.0958 63.4815 41.9816 63.4815 41.9816L47.1229 40.1118C47.2727 41.1236 47.5162 42.125 47.8681 43.0992Z" fill="#CB7D45"/>
<path d="M65.3837 5.22987C64.152 3.7365 63.2201 4.06123 62.6972 4.50954C58.4166 2.13532 55.5191 5.65973 55.5191 5.65973C54.9852 9.22811 52.4119 11.2722 52.4119 11.2722C52.4119 11.2722 53.8334 12.0278 57.2218 11.3085C61.2435 10.4548 62.35 5.92298 62.5102 5.33363C62.9978 5.77119 63.9586 6.72224 64.2514 7.6538C64.6493 8.92016 64.8283 11.5271 65.5883 11.4388C65.5876 11.4388 67.2344 7.47346 65.3837 5.22987Z" fill="#B64C41"/>
<path d="M35.6987 66.7797C35.6987 66.7797 34.97 68.4967 34.211 68.9759C33.4524 69.4551 32.3741 70.613 32.5739 71.5314C32.7737 72.4499 32.9732 73.8875 33.9316 73.8875C34.8901 73.8875 37.1263 69.6549 37.406 68.8563C37.6857 68.0574 37.9252 67.8979 37.9252 67.8979L35.6987 66.7797Z" fill="#FFB27D"/>
<path d="M73.317 104.522C63.6767 110.03 38.2987 101.258 38.3246 100.751C38.4589 98.0549 40.898 81.8249 43.7618 66.337C45.5222 56.8126 50.2098 53.2546 49.4603 52.6542C49.4529 52.6468 49.4492 52.6431 49.4492 52.6431C46.5592 50.5923 47.8084 47.0716 47.9985 45.8109C47.1106 46.0497 44.2467 46.5903 40.9685 44.7816C42.3185 38.1808 44.2427 28.9244 46.171 25.2586C46.2643 25.0796 46.4245 24.9158 46.6448 24.759C46.6297 24.7442 46.626 24.7368 46.626 24.7368C48.431 23.4204 52.1193 23.0177 52.1193 23.0177C52.1193 23.0177 54.107 27.8844 54.7148 28.645C58.6492 33.5603 65.7161 31.3413 64.754 28.2797C64.4071 27.1647 62.6209 23.6551 62.4047 23.2636C62.3936 23.2448 62.9043 23.3123 62.9043 23.3123C64.0901 23.4688 64.9293 23.5879 65.5335 23.6927C66.7192 23.8942 67.0141 24.0356 67.3086 24.2633C68.3489 25.3036 69.7026 27.8881 69.8111 32.5012C69.852 34.2165 71.6382 53.1579 65.8578 52.8298C65.7272 52.8224 65.8394 53.1317 66.0892 53.7174C66.9059 55.5932 69.2217 60.2997 69.893 66.3374C72.0788 85.9792 73.317 104.522 73.317 104.522Z" fill="white"/>
<path d="M60.7635 15.2382C60.7635 15.2382 60.9153 15.8504 62.4416 15.7379C62.4416 15.7379 63.7231 15.6435 63.6757 14.9692C63.6757 14.9692 62.4265 14.5038 60.7635 15.2382Z" fill="white"/>
<path d="M37.4059 68.8563C37.4059 68.8563 37.144 70.7889 36.6345 71.2346C36.1251 71.6802 36.0509 72.4824 35.529 72.0513C35.0065 71.6197 37.4059 68.8563 37.4059 68.8563Z" fill="#FFB27D"/>
<path d="M69.5409 137.408C69.5432 138.857 71.5759 139.019 73.9025 138.916C76.2294 138.814 75.5742 139.354 78.8017 139.631C82.0296 139.907 83.2197 138.92 83.4094 138.469C83.578 138.07 82.0467 137.613 80.4109 137.088C80.2051 137.023 79.9989 136.955 79.7927 136.887C77.9497 136.275 76.8076 134.781 75.2894 133.439C73.8514 132.168 72.1911 127.821 72.1911 127.821L67.7916 127.305C67.7916 127.305 69.38 131.209 69.9617 132.884C70.3039 133.869 70.0449 135.031 69.8015 135.92C69.6708 136.404 69.5395 136.898 69.5409 137.408Z" fill="#FFB27D"/>
<path d="M73.9028 138.916C76.2297 138.814 75.5745 139.354 78.802 139.631C82.0299 139.907 83.22 138.92 83.4097 138.469C83.5783 138.07 82.047 137.613 80.4112 137.088L80.3894 137.117C80.3894 137.117 78.2288 138.085 75.5872 137.627C73.4343 137.254 71.2864 136.19 69.8018 135.92C69.6712 136.404 69.5398 136.898 69.5415 137.409C69.5439 138.857 71.5763 139.019 73.9028 138.916Z" fill="#1C468A"/>
<path d="M73.317 104.522C63.6767 110.03 38.2987 101.258 38.3246 100.751C38.4589 98.0549 40.898 81.8249 43.7618 66.337C45.5222 56.8126 50.2098 53.2546 49.4603 52.6542C49.6393 52.7999 52.358 54.9925 57.3442 54.6939C61.8082 54.4256 65.2467 53.8661 66.0896 53.717C66.9063 55.5929 69.222 60.2994 69.8933 66.337C72.0788 85.9793 73.317 104.522 73.317 104.522Z" fill="#F99746"/>
<path d="M49.4492 52.6431C49.4492 52.6431 57.3429 55.9375 65.8582 52.8298L66.2907 54.1644C66.2907 54.1644 57.531 57.2072 49.108 53.7449L49.4492 52.6431Z" fill="#ED7D2B"/>
</svg>
