<svg width="213" height="105" viewBox="0 0 213 105" fill="none" xmlns="http://www.w3.org/2000/svg">
<path d="M191.315 41.1473V48.6135C191.315 49.2771 191.157 49.9178 190.876 50.4803C190.191 51.8524 188.762 52.7964 187.132 52.7964H185.794C183.5 52.7964 181.611 50.9185 181.611 48.6135V41.1473C181.611 40.3598 181.836 39.629 182.218 38.9994C182.218 38.9883 182.218 38.9883 182.218 38.9883C182.96 37.774 184.287 36.9643 185.794 36.9643H187.132C189.437 36.964 191.315 38.8533 191.315 41.1473Z" fill="#233862"/>
<path opacity="0.3" d="M190.876 50.4803C190.191 51.8524 188.762 52.7964 187.132 52.7964H185.794C183.5 52.7964 181.611 50.9185 181.611 48.6135V41.1473C181.611 40.3598 181.836 39.629 182.218 38.9994C182.297 39.4608 184.073 49.7042 190.876 50.4803Z" fill="#233862"/>
<path d="M124.998 95.7966H145.676V74.9277H124.104L124.998 95.7966Z" fill="#172944"/>
<path d="M190.2 51.6825L88.6123 54.1874V0.617645H155.322C161.681 0.617645 167.505 4.17726 170.405 9.83677L174.77 18.3574L190.2 51.6825Z" fill="white"/>
<path d="M132.489 92.4012C132.489 98.0671 135.411 104.315 135.411 104.315C135.411 104.315 139.754 104.315 140.358 104.315C144.704 104.315 148.227 98.9809 148.227 92.4012C148.227 85.8216 139.757 80.4878 135.411 80.4878C131.065 80.4878 132.489 85.8216 132.489 92.4012Z" fill="#233862"/>
<path d="M127.542 92.4012C127.542 98.9809 131.065 104.315 135.411 104.315C139.757 104.315 143.28 98.9809 143.28 92.4012C143.28 85.8216 139.757 80.4878 135.411 80.4878C131.065 80.4878 127.542 85.8216 127.542 92.4012Z" fill="#2B478B"/>
<path d="M129.583 92.4012C129.583 97.3575 132.237 101.375 135.51 101.375C138.784 101.375 141.438 97.3575 141.438 92.4012C141.438 87.4452 138.784 83.4275 135.51 83.4275C132.237 83.4275 129.583 87.4452 129.583 92.4012Z" fill="#AFCDFB"/>
<path d="M189.369 92.4012C189.369 98.0671 192.291 104.315 192.291 104.315C192.291 104.315 196.635 104.315 197.238 104.315C201.584 104.315 205.107 98.9809 205.107 92.4012C205.107 85.8216 196.637 80.4878 192.291 80.4878C187.945 80.4878 189.369 85.8216 189.369 92.4012Z" fill="#233862"/>
<path d="M184.422 92.4012C184.422 98.9809 187.945 104.315 192.291 104.315C196.637 104.315 200.16 98.9809 200.16 92.4012C200.16 85.8216 196.637 80.4878 192.291 80.4878C187.945 80.4878 184.422 85.8216 184.422 92.4012Z" fill="#2B478B"/>
<path d="M58.7489 92.4012C58.7489 98.0671 61.6712 104.315 61.6712 104.315C61.6712 104.315 66.0146 104.315 66.618 104.315C70.9638 104.315 74.4873 98.9809 74.4873 92.4012C74.4873 85.8216 66.0173 80.4878 61.6712 80.4878C57.3254 80.4878 58.7489 85.8216 58.7489 92.4012Z" fill="#233862"/>
<path d="M53.802 92.4012C53.802 98.9809 57.325 104.315 61.6711 104.315C66.0173 104.315 69.5403 98.9809 69.5403 92.4012C69.5403 85.8216 66.0176 80.4878 61.6711 80.4878C57.325 80.4878 53.802 85.8216 53.802 92.4012Z" fill="#2B478B"/>
<path d="M212.943 86.7786C212.954 91.7598 208.917 95.7966 203.947 95.7966H145.676C145.845 94.8187 145.935 93.8062 145.935 92.7605C145.935 85.0576 141.313 78.8057 135.623 78.8057C129.922 78.8057 125.301 85.0576 125.301 92.7605C125.301 93.8062 125.379 94.8187 125.548 95.7966H91.4988C91.4988 95.7966 90.1266 80.5939 90.2955 72.9695C90.4302 66.3352 90.4302 53.336 90.0366 50.1656C90.0366 49.6931 122.871 49.6367 131.159 49.6031C132.284 49.5917 132.958 49.5917 133.026 49.5917L133.138 49.6703L133.262 49.7606C134.791 50.8289 143.36 56.8336 148.678 60.3529C153.368 63.4455 187.979 64.7048 201.551 65.0872C204.925 65.1772 207.005 65.2108 207.005 65.2108C207.005 65.2108 208.86 67.1112 210.502 70.1137C211.761 72.4416 212.886 75.4324 212.908 78.7049C212.92 80.7403 212.931 83.1914 212.931 85.5976C212.943 85.9915 212.943 86.385 212.943 86.7786Z" fill="white"/>
<path d="M182.008 49.5917H136.354C135.297 49.5917 134.341 48.9735 133.903 48.0174L122.602 22.8742C122.231 22.0535 122.838 21.1199 123.737 21.1199H171.899C172.956 21.1199 173.923 21.7495 174.35 22.7278L182.446 41.2252L184.47 45.847C185.235 47.6131 183.942 49.5917 182.008 49.5917Z" fill="#98BAF4"/>
<path d="M160.742 85.5962C160.733 86.3867 160.699 87.1289 160.655 87.7894C160.328 92.1658 155.932 95.7957 155.932 95.7957H145.674C145.843 94.8171 145.935 93.8049 145.935 92.7588C145.935 90.1415 145.395 87.688 144.474 85.5962C142.662 81.5282 139.379 78.8044 135.624 78.8044C131.855 78.8044 128.572 81.5278 126.76 85.5962C125.839 87.688 125.299 90.1415 125.299 92.7588C125.299 93.8049 125.381 94.8171 125.55 95.7957H88.6084V0.621674H118.262L118.403 18.3571C118.403 18.3571 118.903 21.0161 119.915 23.3924C120.822 25.513 122.026 28.3379 123.337 31.413C126.037 37.7176 129.189 45.0736 131.161 49.6045C132.149 51.8988 132.848 53.4603 133.026 53.7978C133.58 54.8536 141.808 59.3122 148.764 63.2695C150.499 64.2575 152.157 65.2119 153.593 66.0749C155.642 67.309 157.243 68.3497 157.999 69.0345C159.898 70.7454 160.843 79.6291 160.742 85.5962Z" fill="#DFEBFD"/>
<path d="M207.006 65.2108H152.896L133.139 49.6706L133.026 49.5917H187.608L203.149 62.0961L207.006 65.2108Z" fill="white"/>
<path d="M159.901 74.3421L155.009 73.8585C153.3 73.6899 151.917 72.4081 151.614 70.7209L150.489 64.5366C150.466 64.4355 150.455 64.3455 150.466 64.2444C153.952 66.2459 156.887 68.0337 158 69.0345C158.81 69.7652 159.451 71.7892 159.901 74.3421Z" fill="#A8302D"/>
<path d="M174.774 18.3571H118.403C118.403 18.3571 118.186 14.7501 116.771 10.6303C115.512 6.99241 113.336 2.93475 109.526 0.618622H155.59C163.099 0.618622 169.753 4.62893 172.395 10.6303C172.52 10.8791 172.629 11.1277 172.722 11.3768C173.514 13.4596 174.23 15.7915 174.774 18.3571Z" fill="white"/>
<path d="M159.912 74.3421L155.009 73.8585C153.3 73.6899 151.917 72.4081 151.614 70.721L150.489 64.5366C150.466 64.4355 150.455 64.3341 150.466 64.233C153.952 66.2459 156.887 68.0338 158 69.0345C158.81 69.7652 159.451 71.7892 159.912 74.3421Z" fill="#A2C2DD"/>
<path d="M212.943 86.7787C212.954 91.7598 208.726 95.7967 203.508 95.7967H145.676C145.845 94.8188 145.935 93.8063 145.935 92.7606C145.935 90.1405 145.395 87.6891 144.473 85.5976H212.931C212.943 85.9915 212.943 86.3851 212.943 86.7787Z" fill="#233862"/>
<path d="M125.301 92.7606C125.301 93.8063 125.379 94.8188 125.548 95.7967H88.6086V85.5976H126.762C125.841 87.6894 125.301 90.1409 125.301 92.7606Z" fill="#233862"/>
<path d="M174.846 65.6508H196.973C197.68 65.6508 198.221 66.6042 198.113 67.6603L197.328 75.3501C197.212 76.4812 196.568 77.316 195.811 77.316H177.582C176.413 77.316 175.381 76.1595 175.042 74.468L173.729 67.93C173.501 66.7956 174.062 65.6508 174.846 65.6508Z" fill="#233862"/>
<path d="M182.447 41.2256C156.348 39.8877 138.694 25.9218 133.364 21.1203H171.9C172.956 21.1203 173.924 21.7499 174.351 22.7281L182.447 41.2256Z" fill="#AFCDFB"/>
<path d="M99.0493 0.617279H0.327393V95.8054H99.0493V0.617279Z" fill="white"/>
<path d="M174.774 18.3571H118.403C118.403 18.3571 118.186 14.7501 116.771 10.6303H172.395C172.52 10.8792 172.628 11.1277 172.722 11.3769C173.514 13.4596 174.23 15.7915 174.774 18.3571Z" fill="#DFEBFD"/>
<path d="M210.503 70.1138C210.188 70.6313 209.783 70.9688 209.345 71.047L201.754 72.4528C201.114 72.5763 200.619 71.4634 200.787 70.3163L201.529 65.2112L201.552 65.0876L201.698 64.0419C201.833 63.1422 202.227 62.4565 202.71 62.2651L203.149 62.0965L207.006 65.2112C207.006 65.2112 208.861 67.1112 210.503 70.1138Z" fill="#233862"/>
<path d="M158 63.2672H0.329346V71.2911H158V63.2672Z" fill="#EA6A60"/>
<path d="M99.0493 17.1099H0.327393V25.1305H99.0493V17.1099Z" fill="#EA6A60"/>
<path d="M35.6357 44.0209C35.6357 36.2602 41.9269 29.9687 49.688 29.9687C57.449 29.9687 63.7405 36.2598 63.7405 44.0209C63.7405 51.7819 57.449 58.0734 49.688 58.0734C41.9269 58.0734 35.6357 51.7816 35.6357 44.0209Z" fill="#EA6A60"/>
<path d="M49.6883 56.4618C46.365 56.4618 43.2406 55.1676 40.8909 52.8179C38.5408 50.4678 37.2466 47.3437 37.2466 44.0205C37.2466 40.6973 38.5408 37.5732 40.8909 35.2231C43.2406 32.8734 46.365 31.5792 49.6883 31.5792C53.0115 31.5792 56.1356 32.8734 58.4853 35.2231C60.835 37.5732 62.1292 40.6976 62.1292 44.0205C62.1292 47.3437 60.835 50.4678 58.4853 52.8179C56.1356 55.1679 53.0112 56.4618 49.6883 56.4618ZM49.6883 32.7246C46.671 32.7246 43.8336 33.8997 41.7005 36.0334C39.5667 38.1672 38.3917 41.0035 38.3917 44.0208C38.3917 47.0381 39.5667 49.8751 41.7005 52.0086C43.8339 54.1423 46.671 55.3174 49.6883 55.3174C52.7052 55.3174 55.5422 54.1423 57.6756 52.0086C59.8091 49.8748 60.9844 47.0381 60.9844 44.0208C60.9844 41.0035 59.8094 38.1669 57.6756 36.0334C55.5418 33.9 52.7052 32.7246 49.6883 32.7246Z" fill="white"/>
<path d="M57.7236 41.9915H51.7179V35.9855H47.6589V41.9915H41.6528V46.0502H47.6589V52.0563H51.7179V46.0502H57.7236V41.9915Z" fill="white"/>
<path d="M169.189 75.2639L159.912 74.3421H159.901L155.009 73.8585C153.3 73.6899 151.917 72.4081 151.614 70.721L150.489 64.5366C150.466 64.4355 150.455 64.3455 150.466 64.2444V64.233C150.41 62.9287 151.602 61.8719 152.94 62.1415L167.39 65.0759C168.312 65.2673 169.043 65.9531 169.29 66.8527L170.988 73.1278C171.303 74.2743 170.37 75.3878 169.189 75.2639Z" fill="#233862"/>
<path d="M118.593 25.6433L128.318 49.5957H111.632C111.632 49.5957 108.209 49.0228 107.77 42.0278C107.302 34.5602 107.302 21.6727 107.302 21.6727L114.626 21.6377C117.418 22.0592 117.855 23.5925 118.593 25.6433Z" fill="#98BAF4"/>
<path d="M123.369 37.2968C123.369 37.2968 124.213 46.9774 119.434 49.6287H128.362L123.369 37.2968Z" fill="#233862"/>
<path d="M124.68 43.7754C124.68 43.7754 122.664 42.3411 122.491 41.1516V47.922H125.129L124.68 43.7754Z" fill="#233862"/>
<path d="M122.49 41.1473V48.6135C122.49 49.2771 122.332 49.9178 122.051 50.4803C121.365 51.8524 119.937 52.7964 118.307 52.7964H116.968C114.674 52.7964 112.785 50.9185 112.785 48.6135V41.1473C112.785 40.3598 113.01 39.629 113.393 38.9994C113.393 38.9883 113.393 38.9883 113.393 38.9883C114.135 37.774 115.462 36.9643 116.968 36.9643H118.307C120.612 36.964 122.49 38.8533 122.49 41.1473Z" fill="#233862"/>
<path d="M99.1452 92.7606C99.1452 93.8063 99.2899 94.8188 99.6002 95.7967H31.6287V85.5976H101.835C100.139 87.6894 99.1452 90.1409 99.1452 92.7606Z" fill="#233862"/>
<path d="M67.8439 92.7606C67.8439 93.8063 67.9886 94.8188 68.2989 95.7967H0.327393V85.5976H70.5338C68.8372 87.6894 67.8439 90.1409 67.8439 92.7606Z" fill="#233862"/>
<path d="M32.5724 95.8034H8.28922C7.77576 93.6119 6.23134 78.0035 19.84 78.0031C32.2071 78.0028 33.1165 92.2431 32.5724 95.8034Z" fill="#172944"/>
<path d="M15.8903 92.4012C15.8903 98.0671 18.8125 104.315 18.8125 104.315C18.8125 104.315 23.1559 104.315 23.7594 104.315C28.1052 104.315 31.6286 98.9808 31.6286 92.4012C31.6286 85.8215 23.1586 80.4878 18.8125 80.4878C14.4667 80.4878 15.8903 85.8215 15.8903 92.4012Z" fill="#233862"/>
<path d="M10.9441 92.4012C10.9441 98.9809 14.4671 104.315 18.8132 104.315C23.1594 104.315 26.6828 98.9809 26.6828 92.4012C26.6828 85.8216 23.1597 80.4878 18.8132 80.4878C14.4671 80.4878 10.9441 85.8216 10.9441 92.4012Z" fill="#2B478B"/>
<path d="M12.9851 92.4012C12.9851 97.3575 15.6388 101.375 18.9123 101.375C22.1858 101.375 24.8394 97.3575 24.8394 92.4012C24.8394 87.4452 22.1858 83.4275 18.9123 83.4275C15.6388 83.4275 12.9851 87.4452 12.9851 92.4012Z" fill="#AFCDFB"/>
</svg>
