<svg width="120" height="18" viewBox="0 0 120 18" fill="none" xmlns="http://www.w3.org/2000/svg">
<path d="M0.00878906 0.389404H3.61209V6.87096H10.2575V0.389404H13.8609V16.7685H10.2575V10.1935H3.61209V16.7685H0.00878906V0.389404Z" fill="white"/>
<path d="M17.0669 8.57896C17.0669 3.92254 20.7404 0.108337 25.7948 0.108337C30.8491 0.108337 34.4759 3.87586 34.4759 8.57896C34.4759 13.2357 30.8021 17.0499 25.7481 17.0499C20.6937 17.0496 17.0669 13.2821 17.0669 8.57896ZM30.7084 8.57896C30.7084 5.7712 28.6492 3.43124 25.7481 3.43124C22.8463 3.43124 20.8341 5.72453 20.8341 8.57896C20.8341 11.3867 22.8933 13.727 25.7948 13.727C28.6962 13.727 30.7084 11.4334 30.7084 8.57896Z" fill="white"/>
<path d="M36.4423 14.3819L38.5717 11.8313C40.0459 13.048 41.59 13.8204 43.4622 13.8204C44.9364 13.8204 45.8256 13.2357 45.8256 12.2293C45.8256 11.3165 45.2642 10.8487 42.5266 10.1468C39.2272 9.30429 37.0978 8.39157 37.0978 5.09251C37.0978 2.12054 39.4844 0.155334 42.8305 0.155334C45.2172 0.155334 47.2529 0.903844 48.9145 2.23771L47.0423 4.95211C45.5916 3.94601 44.1644 3.33751 42.7835 3.33751C41.403 3.33751 40.6776 3.96919 40.6776 4.81175C40.6776 5.88804 41.3794 6.23898 44.2107 6.96434C47.5336 7.83008 49.4055 9.02356 49.4055 11.925C49.4055 15.1774 46.9251 17.0025 43.3917 17.0025C40.9117 17.0025 38.4078 16.1368 36.4423 14.3819Z" fill="white"/>
<path d="M52.542 0.389404H59.2341C63.142 0.389404 65.5052 2.70552 65.5052 6.09861C65.5052 9.8893 62.5571 11.8552 58.8832 11.8552H56.1456V16.7688H52.5423L52.542 0.389404ZM59.0004 8.64912C60.8021 8.64912 61.8549 7.57249 61.8549 6.12177C61.8549 4.50716 60.7315 3.64143 58.9299 3.64143H56.1453V8.64912H59.0004Z" fill="white"/>
<path d="M68.3364 0.389404H71.9397V16.7685H68.3364V0.389404Z" fill="white"/>
<path d="M79.8493 3.71162H74.8651V0.389038H88.4368V3.71162H83.4526V16.7685H79.8493V3.71162Z" fill="white"/>
<path d="M94.7086 0.271851H98.0314L105.051 16.7685H101.284L99.7864 13.095H92.8602L91.3624 16.7685H87.689L94.7086 0.271851ZM98.4992 9.91246L96.3235 4.60122L94.1474 9.91246H98.4992Z" fill="white"/>
<path d="M107.579 0.389404H111.182V13.493H119.349V16.7688H107.579L107.579 0.389404Z" fill="white"/>
</svg>
