<svg width="31" height="31" viewBox="0 0 31 31" fill="none" xmlns="http://www.w3.org/2000/svg">
<g filter="url(#filter0_d_7_18)">
<path d="M20.8077 0H10.1923C8.55054 0.00175621 6.97653 0.654722 5.81562 1.81562C4.65472 2.97653 4.00176 4.55054 4 6.19231V16.8077C4.00176 18.4495 4.65472 20.0235 5.81562 21.1844C6.97653 22.3453 8.55054 22.9982 10.1923 23H20.8077C22.4495 22.9982 24.0235 22.3453 25.1844 21.1844C26.3453 20.0235 26.9982 18.4495 27 16.8077V6.19231C26.9982 4.55054 26.3453 2.97653 25.1844 1.81562C24.0235 0.654722 22.4495 0.00175621 20.8077 0ZM15.5 16.8077C14.4502 16.8077 13.424 16.4964 12.5512 15.9132C11.6784 15.33 10.9981 14.501 10.5963 13.5312C10.1946 12.5613 10.0895 11.4941 10.2943 10.4645C10.4991 9.43493 11.0046 8.48919 11.7469 7.74689C12.4892 7.0046 13.4349 6.49909 14.4645 6.29429C15.4941 6.0895 16.5613 6.19461 17.5312 6.59633C18.501 6.99806 19.33 7.67836 19.9132 8.5512C20.4964 9.42405 20.8077 10.4502 20.8077 11.5C20.8062 12.9072 20.2466 14.2564 19.2515 15.2515C18.2564 16.2466 16.9072 16.8062 15.5 16.8077ZM22.1346 6.19231C21.8722 6.19231 21.6156 6.11449 21.3974 5.96868C21.1792 5.82288 21.0091 5.61564 20.9087 5.37318C20.8083 5.13071 20.782 4.86391 20.8332 4.60651C20.8844 4.34912 21.0108 4.11268 21.1963 3.92711C21.3819 3.74153 21.6183 3.61516 21.8757 3.56396C22.1331 3.51276 22.3999 3.53904 22.6424 3.63947C22.8849 3.7399 23.0921 3.90997 23.2379 4.12819C23.3837 4.3464 23.4615 4.60294 23.4615 4.86538C23.4615 5.21731 23.3217 5.55481 23.0729 5.80366C22.824 6.05251 22.4865 6.19231 22.1346 6.19231ZM19.0385 11.5C19.0385 12.1998 18.8309 12.884 18.4421 13.4659C18.0533 14.0478 17.5007 14.5013 16.8541 14.7691C16.2075 15.0369 15.4961 15.107 14.8097 14.9705C14.1233 14.8339 13.4928 14.4969 12.9979 14.0021C12.5031 13.5072 12.1661 12.8767 12.0295 12.1903C11.893 11.5039 11.9631 10.7925 12.2309 10.1459C12.4987 9.49932 12.9522 8.94669 13.5341 8.55788C14.116 8.16907 14.8002 7.96154 15.5 7.96154C16.4385 7.96154 17.3385 8.33434 18.0021 8.99793C18.6657 9.66152 19.0385 10.5615 19.0385 11.5Z" fill="white"/>
</g>
<defs>
<filter id="filter0_d_7_18" x="0" y="0" width="31" height="31" filterUnits="userSpaceOnUse" color-interpolation-filters="sRGB">
<feFlood flood-opacity="0" result="BackgroundImageFix"/>
<feColorMatrix in="SourceAlpha" type="matrix" values="0 0 0 0 0 0 0 0 0 0 0 0 0 0 0 0 0 0 127 0" result="hardAlpha"/>
<feOffset dy="4"/>
<feGaussianBlur stdDeviation="2"/>
<feComposite in2="hardAlpha" operator="out"/>
<feColorMatrix type="matrix" values="0 0 0 0 0 0 0 0 0 0 0 0 0 0 0 0 0 0 0.25 0"/>
<feBlend mode="normal" in2="BackgroundImageFix" result="effect1_dropShadow_7_18"/>
<feBlend mode="normal" in="SourceGraphic" in2="effect1_dropShadow_7_18" result="shape"/>
</filter>
</defs>
</svg>
