<svg width="23" height="21" viewBox="0 0 23 21" fill="none" xmlns="http://www.w3.org/2000/svg">
<path d="M22.7502 4.28867L19.5667 7.4722C18.9236 14.9274 12.6364 20.7216 5.11197 20.7216C3.56599 20.7216 2.29152 20.4767 1.32369 19.9933C0.543245 19.6026 0.223828 19.1842 0.143974 19.0649C0.0727696 18.9581 0.0266175 18.8366 0.00896608 18.7095C-0.00868534 18.5824 0.0026204 18.4529 0.0420381 18.3308C0.0814557 18.2086 0.147966 18.097 0.2366 18.0041C0.325234 17.9113 0.433699 17.8397 0.553892 17.7947C0.581575 17.784 3.13478 16.8034 4.75636 14.937C3.85707 14.1976 3.07205 13.3293 2.42674 12.3603C1.10648 10.4002 -0.371353 6.9952 0.0843489 1.90689C0.0987933 1.7452 0.159137 1.59101 0.258274 1.46248C0.357411 1.33394 0.491213 1.23641 0.643923 1.18136C0.796633 1.12632 0.961892 1.11606 1.12024 1.15179C1.27858 1.18752 1.42342 1.26776 1.5377 1.38304C1.57496 1.42031 5.0811 4.90728 9.36767 6.03801V5.3896C9.36604 4.70966 9.50047 4.03627 9.76305 3.40907C10.0256 2.78188 10.4111 2.21357 10.8966 1.7376C11.3682 1.2667 11.9293 0.895018 12.5468 0.644491C13.1644 0.393964 13.8258 0.269664 14.4922 0.278924C15.3861 0.287741 16.2625 0.5277 17.0362 0.975472C17.8099 1.42324 18.4546 2.06359 18.9076 2.83426H22.1476C22.3161 2.83413 22.4809 2.88401 22.6211 2.9776C22.7613 3.07118 22.8706 3.20426 22.9351 3.35999C22.9996 3.51571 23.0165 3.68708 22.9836 3.8524C22.9507 4.01771 22.8694 4.16955 22.7502 4.28867Z" fill="white"/>
</svg>
