<svg width="21" height="12" viewBox="0 0 21 12" fill="none" xmlns="http://www.w3.org/2000/svg">
<path d="M20.0877 2.17395L11.1747 11.087C11.0919 11.1699 10.9936 11.2356 10.8854 11.2805C10.7772 11.3253 10.6612 11.3484 10.5441 11.3484C10.427 11.3484 10.311 11.3253 10.2028 11.2805C10.0946 11.2356 9.99628 11.1699 9.9135 11.087L1.00046 2.17395C0.833215 2.0067 0.739258 1.77987 0.739258 1.54335C0.739258 1.30683 0.833215 1.08 1.00046 0.912752C1.1677 0.745507 1.39454 0.65155 1.63106 0.65155C1.86758 0.65155 2.09441 0.745507 2.26166 0.912752L10.5441 9.19631L18.8265 0.912752C18.9094 0.829941 19.0077 0.764251 19.1159 0.719434C19.2241 0.674617 19.34 0.65155 19.4571 0.65155C19.5743 0.65155 19.6902 0.674617 19.7984 0.719434C19.9066 0.764251 20.0049 0.829941 20.0877 0.912752C20.1706 0.995563 20.2362 1.09387 20.2811 1.20207C20.3259 1.31027 20.3489 1.42624 20.3489 1.54335C20.3489 1.66046 20.3259 1.77643 20.2811 1.88463C20.2362 1.99283 20.1706 2.09114 20.0877 2.17395Z" fill="black"/>
</svg>
