<svg width="963" height="471" viewBox="0 0 963 471" fill="none" xmlns="http://www.w3.org/2000/svg">
<path d="M962.441 344.52C961.8 376.735 954.64 408.373 943.385 438.465C941.759 442.731 932.764 470 928.67 470.001C922.274 470.002 915.878 470.003 909.482 470.004C838.534 470.016 767.586 470.027 696.638 470.038C556.827 470.057 417.017 470.076 277.206 470.093C194.41 470.102 111.613 470.156 28.8169 470.108C23.3861 470.105 18.8623 463.09 15.7443 459.385C10.0035 452.562 6.01233 444.806 3.58841 436.581C0.285658 425.376 -1.77827 408.805 4.3534 387.726C7.66421 376.344 14.7624 364.869 20.1334 356.251C31.6657 337.747 46.6763 321.854 63.2522 307.799C82.3061 291.642 106.819 276.763 116.205 252.399C130.084 216.369 106.269 181.017 109.519 144.712C114.937 84.1862 175.08 38.9484 227.913 18.5274C268.85 2.70407 314.223 -1.12424 357.777 0.262345C379.087 0.941029 400.368 3.04391 421.388 6.61766C440.588 9.88179 463.201 13.2198 480.807 22.0226C518.573 35.9979 551.263 58.7155 578.968 87.7616C592.426 101.872 604.366 117.714 619.055 130.597C636.584 145.97 654.523 145.417 676.349 141.185C717.875 133.038 758.45 124.16 800.542 134.397C841.308 144.312 876.352 169.076 905.289 198.745C943.544 237.986 963.495 289.78 962.441 344.52C962.691 331.537 962.399 346.611 962.441 344.52Z" fill="#EDF4FF"/>
</svg>
