<svg width="28" height="23" viewBox="0 0 28 23" fill="none" xmlns="http://www.w3.org/2000/svg">
<path d="M27.2913 4.19C27.1735 3.72919 26.9478 3.30298 26.6329 2.94654C26.318 2.59011 25.9228 2.31366 25.48 2.14C21.195 0.485005 14.375 0.500005 14 0.500005C13.625 0.500005 6.805 0.485005 2.52 2.14C2.0772 2.31366 1.68204 2.59011 1.36712 2.94654C1.05219 3.30298 0.826532 3.72919 0.70875 4.19C0.385 5.4375 0 7.7175 0 11.5C0 15.2825 0.385 17.5625 0.70875 18.81C0.826356 19.271 1.05194 19.6975 1.36687 20.0542C1.68181 20.4108 2.07706 20.6875 2.52 20.8613C6.625 22.445 13.05 22.5 13.9175 22.5H14.0825C14.95 22.5 21.3787 22.445 25.48 20.8613C25.9229 20.6875 26.3182 20.4108 26.6331 20.0542C26.9481 19.6975 27.1736 19.271 27.2913 18.81C27.615 17.56 28 15.2825 28 11.5C28 7.7175 27.615 5.4375 27.2913 4.19ZM18.2775 11.9163L12.2775 15.9163C12.2022 15.9665 12.1146 15.9954 12.0242 15.9997C11.9338 16.0041 11.8438 15.9839 11.764 15.9411C11.6842 15.8984 11.6175 15.8348 11.571 15.7571C11.5245 15.6794 11.4999 15.5905 11.5 15.5V7.5C11.4999 7.40946 11.5245 7.3206 11.571 7.24291C11.6175 7.16522 11.6842 7.10161 11.764 7.05888C11.8438 7.01614 11.9338 6.99588 12.0242 7.00027C12.1146 7.00465 12.2022 7.0335 12.2775 7.08375L18.2775 11.0838C18.3461 11.1294 18.4023 11.1913 18.4412 11.2639C18.4801 11.3365 18.5005 11.4176 18.5005 11.5C18.5005 11.5824 18.4801 11.6635 18.4412 11.7361C18.4023 11.8087 18.3461 11.8706 18.2775 11.9163Z" fill="white"/>
</svg>
